<?xml version="1.0" standalone="no"?>
<!DOCTYPE svg PUBLIC "-//W3C//DTD SVG 20010904//EN"
 "http://www.w3.org/TR/2001/REC-SVG-20010904/DTD/svg10.dtd">
<svg version="1.0" xmlns="http://www.w3.org/2000/svg"
 width="320.000000pt" height="320.000000pt" viewBox="0 0 320.000000 320.000000"
 preserveAspectRatio="xMidYMid meet">
<metadata>
Created by potrace 1.11, written by Peter Selinger 2001-2013
</metadata>
<g transform="translate(0.000000,320.000000) scale(0.100000,-0.100000)"
fill="#000000" stroke="none">
<path d="M1415 3083 c-71 -58 -146 -118 -165 -134 -19 -16 -37 -29 -40 -29 -3
0 -4 30 -3 68 2 86 1 84 12 78 23 -14 39 69 19 99 -5 9 -316 14 -360 6 -5 0
-8 -22 -8 -47 0 -33 5 -51 17 -60 16 -11 18 -34 18 -204 l1 -192 -103 -83
c-115 -94 -113 -82 -30 -172 32 -34 43 -40 58 -33 10 6 22 10 27 10 7 0 11
-100 12 -264 l1 -264 -109 -89 c-59 -48 -128 -104 -152 -123 -24 -19 -52 -43
-62 -52 -17 -17 -18 -17 -19 5 -5 93 -2 132 9 132 18 0 32 25 32 60 0 59 -2
60 -200 60 -113 0 -184 -3 -188 -10 -4 -5 -8 -30 -9 -53 -3 -37 0 -45 17 -49
19 -5 20 -14 20 -212 l0 -207 -37 -30 c-21 -16 -44 -36 -53 -44 -9 -8 -39 -33
-68 -55 -28 -21 -52 -42 -52 -46 0 -3 11 -18 25 -33 14 -15 25 -29 25 -32 0
-2 12 -18 27 -34 28 -32 51 -38 71 -18 6 6 15 9 18 5 4 -3 7 -159 8 -345 1
-336 1 -339 -19 -326 -32 23 -58 16 -90 -22 -42 -51 -63 -124 -62 -221 0 -45
4 -80 8 -77 5 3 11 -7 15 -21 l6 -25 1558 0 1557 0 25 24 c23 21 26 31 26 97
0 171 -81 299 -154 244 -10 -8 -21 -15 -24 -15 -3 0 -6 153 -7 340 l-2 341 33
-3 c30 -3 38 4 90 67 l58 70 -23 15 c-12 8 -41 32 -63 52 -23 21 -44 38 -48
38 -5 0 -17 8 -27 18 -29 26 -47 41 -136 110 -44 34 -91 72 -105 83 -14 12
-50 40 -80 62 -30 23 -64 50 -75 60 -11 11 -39 33 -62 50 -24 17 -43 34 -43
38 0 4 -8 10 -17 13 -10 3 -29 16 -43 28 -14 13 -58 49 -98 81 l-72 58 -35
-27 -35 -26 0 286 c0 228 3 286 13 286 7 0 18 -5 24 -11 12 -12 16 -8 78 66
55 66 57 69 34 88 -10 9 -19 13 -19 9 0 -4 -4 -2 -8 5 -4 6 -47 43 -97 82 -49
40 -97 77 -105 84 -8 7 -35 28 -60 47 -25 19 -52 40 -60 47 -22 18 -342 272
-360 286 -9 7 -36 28 -60 48 -25 19 -49 38 -55 41 -5 3 -68 -41 -140 -99z"/>
</g>
</svg>
